<?xml version="1.0" standalone="no"?>
<!DOCTYPE svg PUBLIC "-//W3C//DTD SVG 20010904//EN"
 "http://www.w3.org/TR/2001/REC-SVG-20010904/DTD/svg10.dtd">
<svg version="1.0" xmlns="http://www.w3.org/2000/svg"
 width="3840.000000pt" height="2160.000000pt" viewBox="0 0 3840.000000 2160.000000"
 preserveAspectRatio="xMidYMid meet">

<g transform="translate(0.000000,2160.000000) scale(0.100000,-0.100000)"
fill="#000000" stroke="none">
<path d="M0 14636 l0 -6964 102 -68 c57 -37 105 -70 108 -74 3 -3 28 -19 55
-34 28 -16 75 -45 105 -65 30 -19 96 -56 145 -81 50 -26 131 -69 181 -98 119
-66 338 -176 434 -217 42 -18 109 -48 150 -67 196 -92 432 -195 539 -235 36
-13 84 -33 106 -42 301 -136 1478 -508 1995 -631 74 -17 200 -47 280 -66 291
-70 340 -80 585 -118 416 -65 651 -95 955 -121 41 -4 143 -15 225 -25 268 -34
527 -43 1055 -37 658 8 892 19 1154 57 421 61 552 101 570 175 8 30 -5 58 -47
103 -34 35 -31 40 11 18 41 -22 73 -60 83 -103 37 -152 47 -442 29 -878 -10
-238 -21 -329 -47 -379 -38 -73 -196 -199 -400 -317 -99 -58 -441 -234 -518
-267 -456 -194 -1280 -471 -1745 -587 -263 -65 -977 -211 -1350 -274 -591
-102 -693 -115 -1260 -161 -135 -12 -285 -25 -335 -31 -278 -31 -684 -51
-1150 -56 -483 -5 -1130 8 -1350 27 -222 20 -500 53 -581 69 l-84 17 0 -1553
0 -1553 8735 0 8735 0 0 33 c0 40 -37 167 -79 272 -97 241 -297 542 -409 614
-56 36 -211 91 -256 91 l-29 0 24 26 c13 14 58 51 99 82 41 31 77 59 80 62 29
38 366 212 630 327 58 25 131 63 162 85 64 43 234 128 256 128 35 0 1 -34 -63
-63 -112 -51 -218 -108 -212 -114 4 -3 42 12 86 32 64 30 87 37 117 32 20 -3
39 -8 42 -11 3 -3 -2 -52 -11 -108 -13 -80 -26 -121 -57 -183 -56 -111 -142
-372 -179 -541 -38 -174 -68 -405 -76 -584 -4 -74 -8 -145 -11 -158 l-4 -22
10410 0 10410 0 0 10800 0 10800 -1165 0 -1165 0 6 -47 c11 -88 20 -97 94
-103 68 -5 70 -13 9 -24 -44 -8 -43 -6 -107 -186 l-16 -44 -8 29 c-4 17 -10
41 -12 55 -7 38 -24 92 -38 118 -8 15 -21 22 -42 23 -17 1 -42 5 -56 9 -18 6
-4 8 48 9 68 1 73 3 82 27 6 14 10 50 10 80 l0 54 -18020 0 -18020 0 0 -6964z
m19740 6773 c0 -5 -7 -9 -15 -9 -8 0 -15 7 -15 15 0 9 6 12 15 9 8 -4 15 -10
15 -15z m13195 -517 c-15 -16 -16 -15 -4 12 7 15 15 23 17 16 3 -7 -3 -19 -13
-28z m-20431 -108 c17 -45 -7 -81 -48 -70 -25 6 -41 42 -30 70 8 22 70 22 78
0z m17141 -314 c430 -17 601 -33 965 -91 284 -45 592 -112 712 -155 101 -37
347 -157 403 -198 60 -43 210 -190 268 -263 22 -29 43 -51 45 -49 1 2 0 27 -4
55 -6 48 -8 50 -32 44 -19 -4 -23 -3 -17 7 5 8 4 11 -2 7 -6 -4 -55 37 -109
89 -55 53 -122 111 -150 129 -29 18 -55 38 -59 44 -7 13 92 -29 140 -59 18
-11 39 -20 46 -20 8 0 42 -18 77 -40 34 -22 74 -43 87 -46 14 -3 25 -10 25
-14 0 -7 22 -17 58 -25 8 -2 21 -10 30 -18 10 -8 49 -26 87 -41 39 -14 87 -37
107 -51 20 -14 39 -25 42 -25 8 0 324 -195 442 -273 68 -45 221 -193 295 -287
53 -66 55 -72 24 -60 l-27 10 33 -41 c58 -73 14 -38 -138 111 -150 147 -276
257 -348 305 -22 15 -49 35 -60 45 -54 47 -390 230 -423 230 -4 0 29 -22 73
-48 140 -85 365 -242 485 -338 112 -90 391 -364 502 -494 30 -36 83 -103 118
-150 70 -95 76 -102 67 -77 -9 24 0 21 14 -4 8 -15 8 -19 0 -15 -19 12 -12 -8
14 -39 34 -38 58 -93 110 -250 64 -191 80 -277 80 -435 0 -125 -3 -140 -28
-201 -35 -82 -98 -145 -187 -185 -63 -28 -70 -29 -220 -29 -144 0 -161 2 -240
29 -112 38 -127 46 -238 130 -52 39 -103 77 -113 84 -20 15 -39 9 -39 -14 0
-7 45 -62 101 -121 152 -163 305 -371 362 -495 34 -71 33 -73 0 -40 -35 33
-113 133 -113 143 0 18 -244 250 -306 291 -85 57 -474 252 -604 303 -278 109
-559 190 -765 221 -140 21 -328 20 -415 -1 -36 -9 -81 -19 -101 -22 -36 -5
-207 24 -308 53 -114 32 -244 63 -250 59 -8 -4 -362 86 -536 138 -66 19 -165
47 -220 62 -126 34 -435 139 -584 199 -117 47 -191 90 -191 110 0 21 -90 114
-148 153 -71 47 -87 55 -190 93 -211 76 -403 105 -652 96 -167 -5 -228 -14
-450 -61 -137 -29 -263 -81 -383 -157 -34 -22 -54 -28 -72 -24 -14 4 -25 11
-25 16 0 22 57 130 116 220 35 53 64 104 64 113 0 27 153 246 256 367 189 221
354 367 589 526 148 100 228 144 420 230 194 86 341 138 490 174 113 27 328
66 405 73 78 8 350 6 595 -3z m-10617 -182 c7 -7 12 -24 12 -38 0 -50 -40 -65
-78 -29 -22 20 -22 21 -5 50 18 30 50 38 71 17z m-5718 -1204 c10 -11 7 -21
-15 -50 l-28 -37 -28 34 c-33 39 -35 52 -14 69 8 7 15 21 15 32 0 11 5 29 11
40 11 20 13 18 30 -26 9 -26 23 -54 29 -62z m-1895 -524 c-3 -5 -10 -10 -16
-10 -5 0 -9 5 -9 10 0 6 7 10 16 10 8 0 12 -4 9 -10z m3185 6 c0 -3 -4 -8 -10
-11 -5 -3 -10 -1 -10 4 0 6 5 11 10 11 6 0 10 -2 10 -4z m14197 -100 c98 -39
210 -78 393 -134 315 -98 1111 -300 1290 -328 115 -18 150 -28 150 -44 0 -21
-161 -6 -335 31 -169 36 -689 166 -845 210 -277 79 -723 232 -765 262 -13 10
-13 47 1 47 1 0 52 -20 111 -44z m-1577 4 c0 -11 -4 -20 -10 -20 -5 0 -10 9
-10 20 0 11 5 20 10 20 6 0 10 -9 10 -20z m-4955 -15 c0 -30 -39 -27 -43 3 -3
20 0 23 20 20 15 -2 23 -10 23 -23z m-14927 -27 c37 -37 -10 -108 -60 -92 -28
8 -38 22 -38 55 0 33 17 49 55 49 17 0 36 -5 43 -12z m18157 -203 c0 -25 -40
-33 -49 -10 -9 24 2 37 27 33 14 -2 22 -10 22 -23z m-5480 0 c256 -24 411 -49
590 -95 145 -38 468 -141 585 -187 216 -85 497 -233 693 -365 73 -48 344 -258
437 -338 126 -107 377 -366 482 -497 93 -114 233 -302 263 -350 6 -9 40 -65
77 -123 144 -230 297 -538 374 -750 35 -97 103 -331 124 -430 6 -30 20 -95 31
-145 46 -211 54 -321 52 -695 -1 -332 -11 -528 -34 -695 -6 -38 -13 -89 -16
-112 -7 -54 -17 -58 -166 -55 -108 2 -246 22 -356 52 -39 10 -41 13 -25 24 9
7 19 22 22 32 9 42 10 177 1 201 -6 18 -6 36 3 60 8 23 9 36 2 41 -14 10 -32
142 -40 289 -4 76 -10 121 -16 117 -6 -4 -8 4 -7 17 2 13 -3 39 -10 57 -8 19
-12 52 -9 82 3 27 2 47 -3 45 -4 -3 -2 8 4 25 8 22 8 33 0 41 -9 9 -11 6 -7
-12 2 -13 -10 14 -27 61 -17 47 -32 97 -33 113 0 15 -7 27 -14 27 -7 0 -11 4
-8 8 5 9 -39 166 -54 195 -7 12 -7 17 2 18 7 0 4 4 -7 9 -16 6 -21 16 -20 43
1 27 -2 34 -13 29 -12 -4 -14 1 -10 23 6 29 -14 89 -33 100 -5 4 -8 13 -5 20
2 7 -9 35 -27 62 -17 26 -32 50 -33 53 -1 3 -5 15 -9 28 -4 12 -11 22 -16 22
-5 0 -9 9 -9 20 0 10 -6 23 -12 27 -15 9 -46 54 -67 96 -8 15 -18 27 -22 27
-5 0 -6 6 -3 13 2 7 -11 30 -29 51 -22 25 -33 46 -31 62 1 13 -3 24 -9 24 -9
0 -9 2 -1 8 6 4 13 20 16 35 4 22 0 32 -20 45 -13 9 -37 29 -53 43 -15 15 -35
29 -44 32 -23 10 -18 -20 7 -37 24 -17 26 -44 13 -154 -5 -38 -12 -55 -27 -63
-30 -16 -50 -4 -42 26 3 13 1 48 -6 77 -6 29 -13 63 -16 76 -2 12 -11 22 -19
22 -10 0 -12 -9 -8 -35 8 -49 -1 -69 -27 -55 -17 9 -20 21 -20 91 0 72 2 81
20 86 26 7 25 25 -1 49 -15 13 -19 26 -15 46 4 20 0 33 -16 48 -12 11 -23 30
-25 42 -2 13 -10 30 -18 38 -13 13 -15 9 -15 -27 0 -85 -29 -115 -70 -71 l-20
22 0 -27 c0 -33 -22 -44 -57 -28 -20 9 -24 16 -19 34 24 80 13 122 -14 56 -11
-25 -10 -43 2 -99 16 -77 13 -91 -23 -89 -13 1 -36 -3 -50 -9 -15 -6 -36 -8
-48 -5 -14 4 -21 1 -21 -10 0 -20 41 -29 103 -21 68 9 84 18 92 53 6 27 65 91
83 91 14 0 32 -23 32 -40 0 -9 9 -25 20 -35 16 -14 19 -26 14 -49 -8 -41 -22
-53 -64 -59 -42 -5 -120 -43 -120 -58 0 -5 7 -23 15 -39 8 -16 11 -31 6 -34
-5 -3 -18 17 -29 44 -16 39 -27 51 -49 55 -15 4 -41 11 -56 16 -36 11 -87 -9
-111 -42 -25 -36 -20 -85 16 -150 35 -63 33 -79 -7 -61 -17 8 -25 20 -25 38 0
31 -50 84 -78 84 -11 0 -28 3 -36 6 -14 5 -13 9 5 25 12 11 17 19 11 19 -25 0
-10 35 33 81 25 26 45 52 45 57 0 16 -64 91 -78 91 -15 1 -67 -25 -94 -48 -15
-12 -18 -12 -24 3 -3 9 -3 24 2 34 4 9 6 23 5 30 -1 6 4 12 11 12 19 0 124 44
143 60 9 8 28 37 43 64 20 40 26 66 27 119 0 37 -5 71 -11 75 -5 4 -17 18 -26
31 -9 13 -41 42 -71 65 -50 38 -185 146 -231 185 -18 15 -18 15 -8 -5 6 -12
27 -40 47 -63 19 -24 35 -47 35 -52 0 -17 -47 -9 -65 11 -26 29 -151 95 -208
110 -64 17 -164 8 -223 -20 -62 -30 -89 -87 -80 -167 10 -84 28 -118 81 -148
25 -15 44 -29 42 -32 -3 -2 -40 7 -82 22 -43 14 -80 24 -82 21 -2 -2 3 -25 12
-51 8 -26 13 -50 11 -53 -3 -3 13 -26 35 -53 28 -34 53 -52 87 -64 55 -18 152
-104 152 -135 0 -25 -12 -26 -34 -1 -22 24 -130 91 -147 91 -6 0 -29 17 -49
38 -53 54 -147 132 -160 132 -24 0 -60 33 -60 55 0 21 4 23 48 22 45 -2 47 -1
50 26 3 22 -5 36 -35 63 -21 19 -37 42 -35 51 2 8 -4 49 -13 90 -18 82 -15
103 14 103 11 0 22 4 25 9 14 22 -152 161 -193 161 -9 0 -30 -9 -47 -19 -21
-13 -36 -16 -47 -9 -21 11 -147 27 -147 17 0 -3 23 -16 51 -28 40 -18 57 -20
79 -13 42 15 65 -16 65 -88 l0 -55 -57 -2 -58 -2 0 39 0 40 -42 0 c-24 0 -59
-8 -78 -18 -33 -16 -35 -20 -35 -64 0 -26 -6 -53 -13 -60 -22 -22 -15 -57 14
-64 47 -12 226 6 273 27 55 24 74 11 35 -24 -28 -27 -76 -43 -93 -33 -5 3 -39
0 -76 -8 -91 -19 -119 -47 -118 -116 1 -55 -6 -59 -47 -30 -51 36 -100 53
-116 39 -11 -9 -18 -9 -26 -1 -7 7 -9 12 -5 12 4 0 3 9 -3 20 -12 22 -36 27
-42 9 -2 -7 -29 -12 -61 -13 -61 -2 -95 -22 -84 -50 8 -20 44 -20 103 0 57 19
103 12 134 -21 13 -14 31 -25 40 -25 16 0 40 -18 40 -31 0 -13 -45 4 -70 26
-14 13 -42 29 -63 36 -47 16 -60 3 -54 -52 l5 -36 -26 24 c-19 17 -36 23 -71
23 -26 0 -52 5 -58 11 -8 8 -26 7 -66 -2 -50 -11 -59 -10 -83 6 -25 16 -26 21
-21 68 4 28 11 55 16 60 5 5 7 15 5 22 -3 6 9 19 27 27 17 9 26 18 20 22 -16
10 -67 -20 -94 -56 -14 -18 -27 -53 -31 -77 -6 -39 -4 -47 20 -72 l26 -27 -53
-31 c-30 -17 -48 -31 -41 -31 19 0 15 -14 -16 -52 l-28 -35 -28 22 c-28 22
-29 25 -16 56 11 26 15 29 20 14 6 -17 7 -17 24 0 25 26 15 40 -32 43 l-42 3
-1 -43 c0 -24 -7 -61 -15 -83 l-14 -40 4 48 c2 26 1 47 -2 47 -17 0 -112 -36
-112 -43 0 -4 -9 -17 -20 -29 l-19 -21 -18 31 c-22 38 -31 40 -42 8 -10 -25
-30 -36 -65 -36 -26 0 -86 -63 -86 -91 0 -18 14 -23 50 -20 11 1 10 -3 -4 -14
-26 -20 -56 -19 -86 5 -38 30 -50 25 -50 -18 0 -26 7 -45 19 -56 11 -10 22
-27 25 -39 5 -20 10 -22 68 -18 l63 3 -19 -21 c-11 -12 -29 -21 -41 -21 -23 0
-88 -57 -80 -70 3 -5 -2 -25 -12 -44 -9 -20 -14 -38 -10 -42 3 -3 32 1 64 9
34 9 47 16 33 16 -24 1 -26 4 -22 36 4 33 6 35 43 35 24 0 39 -5 40 -12 1 -7
2 -17 4 -23 1 -5 3 -18 3 -27 1 -10 9 -18 18 -18 8 0 12 -4 9 -10 -3 -5 -21
-10 -40 -10 -25 0 -40 -8 -64 -35 -34 -40 -38 -50 -16 -41 8 3 15 1 15 -4 0
-14 -39 -23 -53 -12 -21 16 -79 20 -106 6 -14 -8 -33 -11 -42 -9 -20 7 -99
-26 -118 -49 -7 -9 -26 -16 -41 -16 -15 0 -45 -13 -67 -29 -30 -22 -44 -26
-57 -19 -9 5 -37 10 -61 11 -62 3 -96 -31 -103 -102 -4 -41 -1 -52 12 -57 16
-6 15 -8 -1 -26 -50 -55 -107 -55 -119 0 -3 15 -10 39 -15 53 -14 35 -2 75 28
99 14 11 21 20 15 20 -15 0 -72 -68 -72 -86 0 -12 -7 -15 -30 -12 -19 3 -29 1
-27 -6 2 -6 18 -12 35 -14 35 -4 46 -19 55 -74 6 -41 5 -43 -21 -29 -27 14
-110 -5 -143 -33 -16 -14 -49 -28 -74 -32 -47 -7 -58 -15 -60 -47 -1 -15 3
-17 22 -12 21 5 23 3 14 -14 -14 -25 -14 -68 -1 -73 6 -2 -4 -17 -22 -33 -18
-17 -26 -21 -18 -10 7 11 1 8 -14 -7 -15 -16 -30 -28 -34 -28 -4 0 -8 -17 -10
-37 -1 -24 -12 -47 -29 -65 -15 -15 -23 -28 -17 -28 11 0 -38 -39 -50 -40 -5
0 -4 6 2 13 25 29 44 112 38 161 -7 63 -34 94 -76 88 -37 -5 -39 11 -5 26 14
7 30 22 35 34 14 35 36 58 54 58 14 0 14 2 -1 18 -15 16 -20 17 -34 5 -8 -7
-28 -13 -43 -13 -35 0 -51 -9 -105 -59 -43 -40 -71 -49 -38 -13 9 10 13 23 8
30 -6 10 -11 9 -21 -3 -7 -9 -29 -23 -49 -31 -20 -8 -46 -25 -58 -36 -24 -22
-31 -72 -13 -83 6 -4 8 -11 5 -16 -8 -12 21 -12 45 1 22 12 41 -7 20 -20 -7
-4 -9 -13 -6 -19 4 -6 2 -11 -3 -11 -6 0 -11 5 -11 10 0 6 -4 10 -9 10 -5 0
-12 -19 -16 -41 -4 -23 -14 -58 -22 -77 -8 -19 -12 -36 -10 -38 2 -3 34 11 69
30 36 19 74 33 84 31 11 -2 27 -4 37 -4 9 -1 17 -8 17 -16 0 -11 -7 -14 -23
-10 -16 4 -29 0 -42 -16 l-20 -22 25 8 25 7 -22 -21 c-12 -11 -25 -21 -28 -21
-13 0 -44 -37 -55 -64 -13 -36 -1 -53 45 -58 24 -3 35 0 35 9 0 12 13 17 33
14 4 -1 10 6 13 14 4 8 10 15 15 15 12 0 5 -81 -11 -114 -13 -26 -12 -30 5
-42 13 -10 16 -17 9 -22 -6 -4 -14 -19 -18 -34 -3 -15 -16 -33 -29 -39 -32
-17 -87 -71 -87 -86 0 -22 26 -14 40 12 7 14 17 25 22 25 5 0 43 22 84 50 61
41 78 48 96 40 22 -9 22 -9 2 -9 -30 -1 -47 -25 -40 -58 7 -35 0 -45 -47 -71
-30 -16 -34 -22 -23 -31 10 -8 21 -8 40 -1 41 15 66 10 29 -6 -18 -8 -33 -17
-33 -20 0 -3 4 -3 10 1 5 3 21 3 35 -1 22 -6 25 -10 21 -43 -2 -26 -8 -35 -19
-33 -9 1 -18 -6 -21 -16 -3 -10 -19 -26 -36 -35 -38 -23 -44 -49 -35 -141 8
-92 20 -99 81 -50 43 36 55 54 34 54 -7 0 -7 7 0 21 6 11 10 30 9 42 -3 30 11
96 22 103 5 3 7 9 4 14 -9 15 -14 70 -7 70 17 -1 43 -28 33 -35 -26 -16 -1
-115 30 -115 50 0 60 -81 13 -102 -31 -14 -37 -7 -24 27 7 18 7 32 1 38 -5 5
-12 -11 -16 -42 -6 -45 -14 -58 -29 -48 -3 1 -15 -8 -28 -19 -13 -12 -44 -33
-69 -46 -26 -13 -66 -49 -91 -79 -24 -29 -47 -53 -51 -51 -4 1 -16 -6 -28 -16
-11 -11 -29 -17 -42 -15 -13 3 -29 -2 -36 -11 -10 -12 -9 -18 8 -33 27 -23 26
-45 -3 -80 -27 -32 -47 -97 -44 -140 4 -62 -25 -93 -88 -93 -17 0 -27 -8 -34
-26 -6 -14 -10 -27 -10 -29 0 -1 16 -20 36 -41 42 -46 73 -108 74 -146 0 -17
11 -35 32 -53 18 -15 40 -45 50 -66 l17 -39 73 40 c40 21 114 51 163 66 83 26
103 28 270 28 159 1 189 -2 260 -22 269 -78 422 -259 496 -588 23 -98 23 -109
26 -967 l4 -867 24 -16 c13 -8 48 -17 78 -20 30 -2 103 -11 163 -20 250 -36
491 -47 520 -23 15 13 16 12 9 -11 -4 -14 -19 -47 -34 -74 -14 -26 -32 -60
-39 -75 -15 -29 -90 -88 -174 -135 -49 -28 -59 -30 -192 -34 -107 -3 -156 -1
-203 11 -34 9 -101 21 -148 27 -197 24 -360 66 -730 186 -228 75 -323 116
-450 199 -208 134 -295 185 -295 171 0 -8 30 -35 68 -60 105 -72 124 -91 47
-50 -38 20 -80 44 -92 52 l-23 14 0 -116 0 -116 -165 0 c-91 0 -165 -4 -165
-8 0 -5 9 -17 21 -28 11 -10 25 -27 31 -37 8 -15 2 -14 -39 7 -26 14 -61 34
-78 45 -27 19 -45 21 -207 21 l-178 0 0 104 0 105 -72 39 c-184 100 -208 112
-223 112 -8 0 -15 5 -15 12 0 6 -3 8 -6 5 -4 -3 -16 0 -28 8 -33 24 -46 18
-46 -19 0 -52 26 -163 55 -242 15 -38 29 -81 32 -96 l5 -28 -391 0 -392 0 -19
43 c-10 23 -26 70 -35 105 l-18 62 -72 -69 c-79 -75 -192 -138 -300 -167 -92
-24 -291 -29 -403 -10 -231 40 -445 176 -562 357 -169 262 -136 662 74 886 73
78 129 120 231 171 195 98 380 133 739 139 l258 5 -4 132 c-3 126 -5 136 -37
200 -26 53 -43 74 -78 96 -58 37 -140 54 -217 45 -142 -15 -212 -84 -231 -222
l-7 -53 -389 0 -389 0 0 28 c0 105 49 263 109 356 46 70 160 185 233 234 132
90 322 159 520 188 132 19 416 14 533 -10 39 -8 71 -13 72 -12 2 2 -11 56 -32
131 -32 114 -73 276 -94 370 -6 28 -22 156 -37 285 -24 216 -25 259 -21 530 5
293 11 371 48 610 39 244 148 650 235 870 46 116 171 372 238 488 20 34 51 88
69 120 132 229 336 483 596 742 283 283 492 446 829 649 329 199 707 356 1132
470 366 99 936 144 1345 106z m7608 -19 c108 -16 139 -30 169 -82 11 -20 39
-44 62 -56 50 -25 77 -48 70 -59 -3 -5 -13 -3 -24 3 -15 10 -22 9 -37 -5 -26
-22 -96 -36 -241 -45 -120 -8 -124 -9 -226 -60 -194 -97 -351 -278 -416 -481
-9 -31 -25 -84 -35 -118 -10 -35 -21 -63 -25 -63 -24 0 -100 42 -118 65 -18
23 -22 41 -22 104 0 92 30 242 67 331 31 75 132 243 182 301 58 69 219 138
379 163 113 18 102 18 215 2z m-1893 -562 c0 -63 108 -185 203 -229 l52 -25
-39 0 c-51 0 -133 47 -187 108 -40 45 -42 46 -35 17 4 -16 15 -38 23 -47 9
-10 11 -18 5 -18 -6 0 -14 6 -19 13 -5 7 -10 -11 -14 -46 -4 -32 -10 -62 -15
-67 -7 -7 -9 136 -4 308 0 25 30 12 30 -14z m-23287 -94 c7 -13 23 -27 37 -31
l25 -6 -27 -7 c-26 -8 -58 -56 -58 -89 0 -9 -4 -19 -10 -22 -5 -3 -10 2 -10
13 0 43 -22 81 -53 92 l-32 12 35 12 c31 11 36 18 44 62 13 76 18 83 28 34 5
-25 15 -56 21 -70z m22137 45 c6 -8 9 -23 5 -35 -9 -27 -60 -28 -68 -1 -10 41
36 69 63 36z m-1660 -385 c0 -5 -7 -10 -15 -10 -8 0 -15 5 -15 10 0 6 7 10 15
10 8 0 15 -4 15 -10z m5690 -26 c0 -21 -4 -25 -22 -22 -15 2 -24 11 -26 26 -3
18 1 22 22 22 21 0 26 -5 26 -26z m-2935 -71 c-3 -24 -9 -43 -11 -40 -3 3 -2
29 2 58 4 30 9 48 12 41 2 -7 1 -34 -3 -59z m33 -125 c12 -24 22 -53 22 -65 0
-20 17 -37 66 -70 16 -10 14 -11 -11 -2 -16 6 -38 18 -49 27 -19 18 -76 123
-76 142 0 25 27 6 48 -32z m-17791 -64 c4 -11 -1 -22 -12 -31 -16 -11 -21 -11
-33 1 -8 8 -12 22 -9 30 8 21 46 21 54 0z m18123 -206 c0 -18 -7 -58 -15 -88
-8 -30 -15 -68 -15 -83 0 -15 -9 -47 -19 -70 -64 -141 -132 -601 -147 -995 -6
-148 -3 -220 21 -492 3 -32 -13 -52 -35 -45 -22 7 -40 -32 -40 -88 0 -31 -3
-38 -10 -27 -5 8 -10 51 -10 95 0 43 -7 167 -16 275 -34 405 1 842 90 1125 14
44 28 97 31 118 4 20 11 40 16 42 4 3 11 25 15 50 3 25 11 43 18 42 6 -1 10 4
9 10 -5 25 45 121 66 128 12 3 21 13 21 21 0 8 5 14 10 14 6 0 10 -15 10 -32z
m-5229 -184 c19 -17 15 -44 -5 -44 -17 0 -58 45 -49 53 11 12 36 8 54 -9z
m9789 -200 c0 -14 -6 -24 -14 -24 -22 0 -28 17 -16 40 14 26 30 17 30 -16z
m-4633 -6 c-3 -8 -6 -5 -6 6 -1 11 2 17 5 13 3 -3 4 -12 1 -19z m-12 -78 c-4
-23 -9 -39 -11 -37 -3 2 -2 23 2 46 4 23 9 40 11 37 3 -3 2 -23 -2 -46z m7411
-89 c37 -150 54 -281 60 -481 5 -153 9 -193 26 -233 21 -53 20 -62 -10 -53
-36 12 -42 48 -42 269 0 229 -5 278 -51 464 -16 67 -29 132 -29 145 1 21 1 22
12 4 5 -10 21 -62 34 -115z m-7429 7 c-3 -8 -6 -5 -6 6 -1 11 2 17 5 13 3 -3
4 -12 1 -19z m-21522 -33 c0 -26 -4 -30 -31 -33 -27 -3 -33 1 -38 23 -9 36 0
47 37 43 28 -3 32 -7 32 -33z m22070 25 c3 -5 -1 -10 -9 -10 -9 0 -16 5 -16
10 0 6 4 10 9 10 6 0 13 -4 16 -10z m-4655 -71 c0 -5 -4 -9 -10 -9 -5 0 -10 7
-10 16 0 8 5 12 10 9 6 -3 10 -10 10 -16z m-1770 -49 c0 -5 -4 -10 -10 -10 -5
0 -10 5 -10 10 0 6 5 10 10 10 6 0 10 -4 10 -10z m-5486 -25 c-4 -8 -10 -12
-15 -9 -11 6 -2 24 11 24 5 0 7 -7 4 -15z m6576 -215 c0 -4 3 -22 6 -39 5 -24
3 -31 -9 -31 -18 0 -37 29 -37 58 0 10 -9 29 -20 42 -29 33 -25 34 20 4 22
-15 40 -30 40 -34z m-1781 19 c-36 -33 -92 -62 -71 -36 7 8 10 16 7 18 -2 3 5
6 17 6 31 3 47 21 28 33 -11 7 -6 10 19 10 l33 0 -33 -31z m148 15 c-4 -4 -17
-12 -29 -18 -13 -6 -24 -21 -26 -33 -2 -12 -18 -35 -37 -52 -38 -33 -65 -79
-65 -113 -1 -28 -20 -54 -39 -53 -17 0 -28 25 -12 25 6 0 11 11 11 25 0 19 -5
25 -22 25 -26 0 -98 31 -98 42 0 5 12 13 28 20 15 6 49 21 75 34 27 13 67 24
89 24 35 0 39 2 33 20 -4 11 -2 20 4 20 6 0 20 9 31 20 11 11 30 20 42 20 12
0 18 -3 15 -6z m-102 -25 c-8 -12 -35 -12 -35 0 0 11 22 20 33 14 4 -2 5 -9 2
-14z m-18455 -23 c0 -3 -4 -8 -10 -11 -5 -3 -10 -1 -10 4 0 6 5 11 10 11 6 0
10 -2 10 -4z m20540 -86 c0 -5 -9 -10 -19 -10 -11 0 -23 -5 -26 -10 -4 -6 -11
-8 -16 -4 -16 10 11 34 37 34 13 0 24 -4 24 -10z m-2065 -50 c-16 -16 -31 -28
-33 -25 -7 7 39 55 52 55 5 0 -3 -13 -19 -30z m6234 -65 c5 2 12 -30 15 -73 4
-42 14 -138 22 -212 11 -96 14 -178 9 -285 -6 -154 5 -268 40 -394 17 -62 25
-74 26 -40 0 23 1 23 9 4 8 -21 -23 -331 -34 -343 -3 -3 -6 48 -7 114 -1 145
-4 170 -31 206 -23 33 -37 32 -56 -3 -13 -23 -13 -23 -8 11 29 178 35 586 11
787 -8 70 -14 169 -13 218 1 50 3 71 5 47 2 -23 8 -40 12 -37z m11821 49 c0
-17 -22 -14 -28 4 -2 7 3 12 12 12 9 0 16 -7 16 -16z m-15210 -84 c0 -27 -27
-37 -47 -17 -20 19 -9 37 23 37 17 0 24 -5 24 -20z m8000 -96 c11 -12 10 -18
-3 -32 -16 -15 -18 -15 -34 0 -13 14 -14 20 -3 32 7 9 16 16 20 16 4 0 13 -7
20 -16z m-16245 -165 c17 -16 -10 -44 -41 -44 -29 0 -33 11 -19 53 5 14 41 8
60 -9z m5109 -96 c8 -20 -1 -33 -23 -33 -30 0 -45 25 -26 44 17 17 40 12 49
-11z m-414 -6 c-14 -12 -24 -29 -22 -38 3 -16 -57 -69 -77 -69 -17 0 -13 66 5
81 13 11 96 46 114 48 3 0 -6 -10 -20 -22z m6735 -94 c-4 -27 -11 -55 -16 -63
-7 -11 -8 -8 -5 10 3 14 8 42 11 63 3 20 8 37 12 37 3 0 2 -21 -2 -47z m-6525
-78 c0 -17 -5 -22 -17 -20 -18 3 -19 27 -2 33 5 2 2 16 -6 32 -8 16 -15 37
-15 47 0 10 9 -2 20 -26 11 -24 20 -54 20 -66z m7698 32 c-7 -14 -13 -17 -16
-9 -6 19 6 44 18 37 7 -4 6 -14 -2 -28z m-1265 -27 c3 -11 1 -23 -4 -26 -5 -3
-9 6 -9 20 0 31 6 34 13 6z m1215 -13 c18 1 51 -9 75 -23 39 -22 40 -24 15
-24 -40 0 -59 -10 -69 -36 -13 -36 -26 -29 -25 13 1 31 -4 40 -34 61 -19 14
-26 21 -15 17 11 -5 35 -8 53 -8z m-7848 -30 c0 -10 -4 -16 -9 -12 -18 11 -91
-13 -111 -36 -17 -21 -19 -21 -13 -4 10 32 34 55 59 55 13 0 25 4 29 9 10 17
45 8 45 -12z m-163 -41 c-27 -24 -63 -50 -80 -57 -18 -7 -40 -19 -49 -27 -10
-8 -18 -11 -19 -6 0 5 -3 21 -5 37 -4 23 -1 27 20 27 14 0 28 5 32 11 3 6 19
9 34 6 20 -5 35 1 61 23 54 46 59 35 6 -14z m213 28 c0 -2 -9 -4 -20 -4 -11 0
-20 4 -20 9 0 5 9 7 20 4 11 -3 20 -7 20 -9z m-418 -61 c10 -9 18 -21 18 -27
0 -6 5 -28 11 -48 7 -27 15 -38 29 -38 11 0 20 4 20 9 0 6 16 7 34 4 55 -9 82
4 113 50 16 23 35 42 43 42 8 1 26 7 38 14 57 31 146 -38 99 -77 -22 -18 -66
-25 -82 -12 -16 13 -23 10 -79 -34 -35 -28 -45 -31 -112 -31 -85 0 -89 -3
-136 -95 -7 -14 -17 -29 -23 -33 -5 -5 5 -5 24 -1 45 9 63 28 67 71 2 20 5 37
7 40 6 5 67 -30 67 -39 0 -4 14 -3 31 2 26 8 29 7 19 -5 -7 -8 -23 -15 -35
-15 -12 0 -28 -7 -35 -15 -6 -8 -22 -17 -33 -21 -12 -3 -60 -44 -107 -91 -47
-46 -97 -96 -112 -110 -27 -27 -28 -43 -2 -43 29 0 13 -15 -19 -17 -19 -2 -27
1 -19 6 9 5 5 11 -13 19 -29 13 -49 6 -79 -27 -11 -12 -25 -21 -32 -21 -7 0
-17 -6 -21 -12 -4 -7 -16 -14 -26 -14 -17 -2 -17 -1 -2 16 8 9 13 24 9 34 -5
12 -2 15 10 10 9 -4 24 0 34 8 24 20 69 38 96 38 12 0 33 11 46 25 13 14 29
25 35 25 25 0 46 38 43 77 -2 31 -7 39 -26 41 -14 2 -33 -5 -45 -17 -29 -26
-120 -65 -115 -49 3 7 20 18 38 24 74 25 84 84 17 102 l-32 9 28 12 c41 16 55
14 73 -14 l16 -24 38 31 c36 31 37 33 19 46 -20 14 -26 42 -10 42 18 0 71 52
71 69 0 32 -21 42 -49 23 -14 -9 -35 -22 -46 -28 -25 -14 -31 -57 -11 -77 21
-21 20 -27 -5 -27 -12 0 -17 4 -14 11 4 6 -3 21 -15 34 l-22 24 21 27 c13 16
19 35 16 45 -5 14 2 22 27 33 45 19 78 19 100 -1z m-6754 -36 c2 -12 -3 -17
-17 -17 -12 0 -21 6 -21 13 0 31 32 34 38 4z m1066 -50 c42 -31 15 -117 -37
-117 -53 0 -74 65 -35 107 24 26 46 29 72 10z m13146 -113 c0 -9 5 -12 12 -8
7 5 8 3 3 -6 -6 -10 -11 -9 -22 5 -15 22 -17 39 -3 30 6 -3 10 -13 10 -21z
m-413 -76 c-3 -7 -5 -2 -5 12 0 14 2 19 5 13 2 -7 2 -19 0 -25z m-6783 16 c29
-11 17 -23 -29 -30 -25 -3 -45 -10 -45 -15 0 -5 -16 -9 -35 -9 -19 0 -35 2
-35 4 0 2 -3 11 -6 20 -5 14 3 16 54 16 34 0 64 5 67 10 7 12 8 12 29 4z
m6773 -76 c-3 -8 -6 -5 -6 6 -1 11 2 17 5 13 3 -3 4 -12 1 -19z m-7230 -74
c-3 -3 -12 -4 -19 -1 -8 3 -5 6 6 6 11 1 17 -2 13 -5z m-148 -74 c1 -13 0 -13
-9 0 -5 8 -9 26 -9 40 l1 25 8 -25 c4 -14 8 -32 9 -40z m7301 -140 c14 -11 31
-20 38 -20 15 0 15 -1 -3 -76 -11 -50 -33 -221 -36 -283 0 -10 -4 -8 -10 8 -5
13 -12 78 -14 145 -3 66 -7 149 -10 184 -2 34 -1 62 3 62 4 0 18 -9 32 -20z
m-18551 -31 c20 -7 43 -14 51 -17 8 -3 18 -4 23 -4 10 3 9 -16 -2 -22 -13 -8
-151 35 -145 45 7 12 31 11 73 -2z m12091 -33 c0 -8 -8 -24 -19 -37 -16 -20
-22 -22 -44 -12 -31 14 -27 50 7 56 42 8 56 7 56 -7z m-11867 -50 c8 -21 -4
-57 -17 -53 -18 6 -20 67 -3 67 8 0 17 -6 20 -14z m178 -46 c144 -47 379 -106
539 -135 156 -29 190 -39 94 -30 -149 16 -363 58 -509 101 -88 26 -179 49
-202 52 -34 3 -43 8 -43 23 0 25 10 24 121 -11z m18339 20 c0 -13 100 -164
112 -168 4 -2 8 -8 8 -14 0 -11 160 -184 320 -346 105 -106 252 -232 270 -232
6 0 28 -17 50 -37 27 -26 40 -46 40 -65 0 -26 40 -78 60 -78 30 0 -38 -114
-159 -267 -15 -18 -36 -46 -49 -63 l-24 -30 129 0 128 1 40 52 c21 29 91 117
155 196 299 375 357 450 370 482 20 51 40 71 57 58 37 -31 0 -90 -227 -364
-64 -77 -176 -203 -248 -280 l-130 -140 101 -3 102 -3 0 -852 c0 -807 1 -855
19 -906 10 -29 34 -71 52 -91 121 -134 431 -112 568 41 l46 51 0 879 0 879
395 0 395 0 0 -1245 0 -1245 -369 0 -369 0 -7 101 c-12 162 -9 160 -80 88 -71
-73 -183 -149 -263 -179 -129 -49 -170 -55 -347 -55 -145 0 -182 4 -254 23
-338 92 -524 343 -561 756 -5 61 -10 267 -10 457 l0 347 -52 39 c-29 22 -72
52 -96 67 -23 14 -79 59 -124 99 -44 40 -102 91 -128 114 l-48 43 30 -77 c115
-295 128 -754 32 -1073 -90 -299 -291 -544 -552 -675 -40 -20 -99 -46 -132
-58 l-58 -22 49 -125 c27 -68 53 -127 58 -130 12 -7 57 -152 70 -225 6 -33 12
-136 15 -230 6 -283 -30 -523 -47 -313 -8 91 -47 218 -100 323 -22 44 -42 96
-44 115 -3 35 -33 169 -60 268 -7 29 -17 50 -22 48 -4 -3 -7 5 -6 19 2 16 -1
22 -10 18 -19 -7 -43 18 -37 39 2 10 -1 18 -7 18 -6 0 -11 9 -11 19 0 11 -6
26 -13 33 -36 37 -60 87 -34 72 6 -4 10 -4 7 -1 -4 3 -103 8 -220 11 -170 3
-233 8 -301 24 -455 108 -756 426 -860 911 -26 125 -37 431 -20 580 69 592
439 985 996 1061 44 6 143 10 219 9 l140 -1 44 51 c24 28 47 51 52 51 4 0 24
-31 43 -68 35 -66 38 -68 89 -81 29 -8 59 -16 67 -19 7 -3 -11 30 -41 74 -31
43 -63 94 -72 111 -21 42 -56 212 -55 267 1 41 1 41 20 -24 30 -97 57 -164
112 -275 76 -150 91 -172 147 -200 61 -31 64 -31 45 -2 -8 13 -12 27 -8 32 5
4 3 5 -3 2 -13 -7 -83 108 -172 283 -110 215 -137 311 -137 485 0 116 1 122
32 183 51 99 169 220 283 289 19 12 75 33 123 47 82 24 91 25 118 10 36 -18
47 -45 55 -133 7 -75 -5 -128 -61 -271 -43 -109 -53 -224 -31 -356 33 -200
109 -357 303 -618 41 -55 72 -104 70 -110 -2 -6 -13 -15 -25 -21 -12 -5 -22
-15 -22 -23 0 -7 -16 -20 -35 -29 -32 -15 -37 -21 -34 -39 0 -4 -5 -10 -11
-14 -9 -5 -9 -18 0 -51 22 -86 109 -192 280 -344 116 -103 169 -145 182 -145
4 0 8 200 8 445 l0 445 50 0 c28 0 50 2 50 5 0 3 -42 56 -94 118 -171 205
-297 393 -380 567 l-36 74 0 142 c0 154 18 284 49 358 18 42 41 62 41 36z
m-7370 -122 c0 -4 -11 -3 -25 4 -13 6 -22 15 -19 19 5 9 44 -11 44 -23z
m-11090 2 c0 -5 -2 -10 -4 -10 -3 0 -8 5 -11 10 -3 6 -1 10 4 10 6 0 11 -4 11
-10z m5319 -42 c11 -28 -5 -50 -32 -46 -29 4 -44 32 -28 52 19 23 50 20 60 -6z
m5821 -32 c0 -3 -4 -8 -10 -11 -5 -3 -10 -1 -10 4 0 6 5 11 10 11 6 0 10 -2
10 -4z m470 -26 c0 -5 -9 -10 -20 -10 -11 0 -20 5 -20 10 0 6 9 10 20 10 11 0
20 -4 20 -10z m-58 -51 c-3 -20 -8 -27 -14 -21 -6 6 -6 17 1 31 16 28 18 26
13 -10z m75 9 c-3 -8 -6 -5 -6 6 -1 11 2 17 5 13 3 -3 4 -12 1 -19z m4043
-350 l1 -363 57 -28 c76 -36 160 -64 219 -72 26 -3 66 -8 88 -11 l40 -5 -62
-63 c-50 -52 -74 -88 -121 -188 -109 -225 -145 -375 -162 -678 -6 -102 -16
-203 -22 -225 -6 -22 -13 -49 -15 -60 -2 -11 -8 -24 -13 -29 -6 -6 -10 -279
-10 -733 l0 -723 -390 0 -390 0 -1 1063 c-1 1085 -4 1351 -14 1367 -3 5 -31
17 -61 26 -44 13 -65 14 -97 5 -23 -5 -44 -8 -47 -5 -12 13 44 42 112 59 40 9
81 21 91 26 16 9 17 43 17 504 l0 495 390 0 390 0 0 -362z m8000 -1408 l0
-1770 -349 0 -349 0 -5 33 c-3 17 -11 68 -17 112 -7 44 -14 86 -16 93 -2 8
-33 -17 -76 -60 -159 -160 -320 -228 -543 -228 -359 0 -642 184 -806 525 -96
199 -139 408 -146 721 -7 287 13 456 79 664 58 182 152 335 282 458 68 64 105
90 188 130 132 65 203 82 364 89 103 4 148 2 210 -11 119 -26 246 -91 332
-171 l72 -67 0 626 0 626 390 0 390 0 0 -1770z m-1422 1560 l12 -35 -20 24
c-11 13 -20 33 -20 44 0 28 14 11 28 -33z m36 -45 c-7 -16 -24 -21 -24 -6 0 8
7 13 27 20 1 1 0 -6 -3 -14z m273 -10 c1 -5 -15 -20 -37 -33 -43 -24 -62 -21
-91 14 -13 17 -13 17 9 2 22 -15 26 -15 53 0 16 10 29 21 29 25 0 12 33 4 37
-8z m-209 -27 c-2 -13 0 -24 5 -25 4 -2 18 -15 31 -30 26 -30 20 -43 -20 -43
-18 0 -64 47 -64 66 0 6 40 50 48 53 1 1 1 -9 0 -21z m-9418 -64 c0 -8 -4 -12
-10 -9 -5 3 -10 10 -10 16 0 5 5 9 10 9 6 0 10 -7 10 -16z m153 -34 c5 -21 5
-36 -1 -38 -5 -1 -29 -13 -53 -25 -48 -24 -63 -63 -35 -87 24 -19 19 -35 -19
-64 -30 -23 -35 -33 -35 -69 0 -23 9 -69 20 -101 15 -44 17 -62 9 -72 -17 -21
-29 -17 -29 11 0 14 -4 25 -9 25 -12 0 -21 -63 -10 -74 5 -6 9 -20 9 -33 0
-13 4 -23 9 -23 8 0 16 -32 25 -98 5 -40 17 -42 106 -16 127 37 251 54 390 54
260 -1 464 -51 627 -156 l58 -37 130 -1 c72 -1 150 2 175 7 l45 7 -30 -15
c-42 -23 -49 -31 -30 -39 11 -4 14 -2 9 7 -4 6 -3 8 1 4 5 -4 10 -13 11 -20 2
-7 14 -57 28 -112 14 -55 26 -108 26 -118 0 -11 9 -21 20 -24 11 -3 17 -9 14
-14 -3 -5 -10 -7 -15 -3 -5 3 -25 -5 -45 -17 -40 -25 -40 -14 0 -159 18 -64
29 -132 33 -208 l6 -113 -119 3 c-138 4 -134 9 -82 -101 20 -42 57 -91 108
-145 79 -82 108 -127 179 -271 38 -77 91 -213 91 -231 0 -5 -7 0 -16 11 -42
57 -143 160 -186 192 -80 58 -339 162 -373 149 -8 -3 -15 -18 -15 -33 -1 -63
-109 -88 -204 -48 -94 40 -210 210 -236 346 -15 76 -12 202 6 304 25 140 26
135 -29 172 -59 40 -114 56 -188 57 -53 1 -59 -2 -120 -52 -105 -85 -159 -169
-174 -272 -7 -48 36 -272 57 -297 6 -7 7 -13 3 -13 -5 0 -1 -8 7 -17 8 -10 26
-38 39 -63 13 -25 30 -52 38 -60 19 -20 73 -108 90 -145 7 -16 19 -43 26 -60
8 -16 16 -47 20 -69 7 -41 -13 -136 -28 -136 -5 0 -7 -7 -3 -15 3 -8 2 -15 -2
-15 -5 0 -16 -15 -24 -34 -9 -18 -31 -50 -48 -70 l-32 -36 29 -11 c46 -19 190
-15 252 6 107 35 186 140 198 261 l6 54 363 0 364 0 0 -62 c0 -145 -59 -324
-148 -454 -46 -68 -174 -195 -245 -243 -73 -50 -223 -117 -310 -140 -131 -34
-239 -44 -407 -38 -163 6 -257 22 -377 63 -40 14 -77 23 -82 20 -4 -3 -11 -29
-15 -58 -4 -29 -13 -56 -19 -60 -7 -5 -2 -8 13 -8 33 0 37 -3 105 -88 32 -40
83 -92 114 -114 48 -34 51 -39 26 -33 -81 19 -162 35 -184 35 -13 0 -43 -11
-67 -25 -41 -24 -46 -32 -100 -149 -10 -22 -38 -58 -63 -80 -98 -89 -101 -93
-101 -128 0 -42 23 -76 64 -94 30 -14 28 -15 -34 -9 -45 4 -80 0 -115 -11 -27
-8 -73 -22 -102 -29 -74 -20 -172 -70 -210 -107 -33 -31 -33 -32 -14 -52 11
-12 30 -41 43 -66 20 -40 23 -58 23 -170 0 -117 -2 -128 -27 -176 -58 -109
-157 -160 -297 -152 -168 10 -267 115 -279 296 -9 154 43 268 149 327 50 28
62 30 154 30 84 0 107 -4 141 -22 l41 -22 85 172 c47 95 93 196 102 226 9 30
22 64 30 76 14 22 204 145 223 145 16 0 95 82 155 160 56 74 128 187 128 201
0 4 -26 22 -57 40 -253 143 -435 392 -513 702 -39 157 -53 302 -49 521 3 129
1 183 -6 171 -5 -9 -15 -24 -22 -33 -11 -16 -12 -16 -13 0 0 10 13 32 28 50
20 23 32 53 40 98 6 35 8 67 4 71 -14 13 -76 29 -111 29 -27 0 -32 3 -21 10
14 10 86 32 140 44 20 4 30 17 44 58 61 172 168 337 295 453 41 38 43 42 30
63 -9 14 -24 22 -41 22 -16 0 -28 5 -28 10 0 6 9 10 21 10 16 0 19 4 13 18 -4
9 -9 37 -12 62 -2 25 -12 54 -21 65 -10 11 -25 40 -34 65 -11 29 -12 39 -3 28
38 -50 132 -41 166 15 30 48 25 92 -15 153 -60 90 -48 133 47 164 21 6 49 25
63 42 22 26 26 40 25 82 -4 82 -5 79 47 73 42 -4 51 -2 81 24 41 36 53 34 65
-11z m2977 -285 c25 -65 24 -73 -12 -91 l-33 -17 19 21 c13 16 17 33 14 66 -4
53 -1 56 12 21z m-5325 -265 c0 -18 -6 -26 -21 -28 -26 -4 -40 24 -23 45 18
21 44 11 44 -17z m-8468 -79 c174 -36 328 -145 409 -290 16 -28 32 -50 35 -48
3 1 30 30 58 65 103 124 255 220 416 263 121 32 330 37 458 11 328 -68 516
-306 566 -717 7 -59 11 -387 11 -947 l0 -858 -390 0 -389 0 -3 858 -3 857 -22
59 c-45 119 -117 161 -273 161 -85 -1 -102 -4 -161 -32 -68 -31 -126 -82 -160
-137 -18 -30 -19 -63 -19 -898 l0 -868 -390 0 -390 0 0 818 c0 502 -4 842 -10
882 -6 36 -23 90 -38 120 -23 47 -36 59 -86 84 -51 27 -68 30 -149 30 -51 0
-111 -5 -134 -12 -60 -18 -131 -69 -180 -130 l-43 -53 0 -869 0 -870 -390 0
-390 0 0 1245 0 1245 368 -2 367 -3 12 -130 c6 -71 12 -132 12 -135 1 -3 36
28 79 70 178 174 362 247 627 249 72 0 142 -6 202 -18z m3718 8 c376 -52 663
-257 816 -583 88 -190 118 -353 126 -693 l6 -253 -776 0 -776 0 15 -52 c41
-142 134 -269 241 -325 101 -54 164 -68 303 -66 212 1 361 57 495 185 l71 66
177 -209 178 -210 -21 -29 c-40 -56 -179 -176 -260 -224 -152 -90 -340 -153
-527 -177 -130 -16 -378 -6 -505 21 -444 93 -777 390 -903 803 -44 147 -57
269 -52 492 6 220 20 323 69 475 138 433 454 705 903 775 101 16 320 18 420 4z
m1685 -55 c0 -20 -30 -30 -40 -13 -11 17 7 40 26 32 8 -3 14 -12 14 -19z
m-612 -506 c-7 -19 -38 -22 -38 -4 0 10 9 16 21 16 12 0 19 -5 17 -12z m18994
-194 c-10 -18 -52 -27 -52 -12 0 5 12 21 27 36 23 23 28 24 31 10 2 -10 -1
-25 -6 -34z m-13792 -134 c0 -5 -5 -10 -11 -10 -5 0 -7 5 -4 10 3 6 8 10 11
10 2 0 4 -4 4 -10z m13106 -191 c31 -6 66 -8 76 -5 11 2 17 2 13 -2 -13 -13
-112 -27 -146 -21 -21 5 -45 20 -61 40 -42 50 -34 63 16 28 26 -17 69 -34 102
-40z m-222 -226 c-5 -5 -12 -12 -15 -16 -3 -5 -9 -2 -12 7 -5 12 0 16 15 16
12 0 17 -3 12 -7z m696 -165 c-15 -38 -106 -180 -161 -253 -21 -28 -84 -93
-141 -144 -57 -51 -123 -112 -148 -135 -25 -23 -61 -53 -80 -68 -54 -40 -310
-170 -325 -164 -7 2 -16 -2 -19 -10 -7 -19 -26 -18 -26 1 0 8 4 15 9 15 5 0
11 10 13 22 2 16 17 27 59 44 107 41 261 115 284 136 14 13 -33 -6 -132 -53
-149 -71 -263 -111 -343 -120 -41 -4 -113 -15 -160 -23 -47 -9 -87 -16 -90
-16 -17 1 44 25 145 55 294 89 542 196 701 302 47 32 96 63 107 70 37 21 177
168 177 186 0 9 5 17 10 17 6 0 14 8 18 19 10 25 106 160 111 156 2 -3 -2 -19
-9 -37z m-1190 12 c-36 -11 -52 -11 -45 0 3 6 21 10 38 9 31 -1 31 -1 7 -9z
m-10205 -80 c10 -11 16 -20 13 -20 -3 0 -13 9 -23 20 -10 11 -16 20 -13 20 3
0 13 -9 23 -20z m169 -170 c43 -56 89 -130 81 -130 -3 0 -26 32 -51 71 -26 39
-69 96 -97 127 -38 42 -41 48 -13 22 21 -19 57 -60 80 -90z m15781 -40 c0 -8
-10 -16 -22 -18 -22 -3 -32 16 -16 32 12 11 38 2 38 -14z m-31218 -476 c12 -7
48 -46 80 -85 32 -40 111 -132 176 -205 64 -73 117 -135 117 -138 0 -2 -9 -2
-20 1 -11 3 -20 9 -20 13 0 4 -11 5 -25 2 -15 -2 -25 0 -25 7 0 7 -3 10 -8 7
-4 -2 -34 4 -65 15 -49 16 -70 32 -131 97 -142 150 -166 186 -166 255 0 56 30
67 87 31z m26810 -282 c-19 -21 -22 -54 -7 -83 11 -20 -3 -28 -15 -9 -3 6 -15
10 -27 10 -14 0 -18 5 -14 16 3 9 9 26 12 39 3 12 15 27 27 33 33 16 42 14 24
-6z m-25850 -495 c112 -36 253 -58 318 -51 29 4 66 3 82 -1 l28 -7 -23 -18
c-52 -43 -262 -32 -427 21 -88 28 -133 49 -108 49 17 0 4 30 -22 53 -18 15
-15 15 27 -2 26 -11 82 -31 125 -44z m10853 -607 l0 -450 -105 0 -105 0 0 450
0 450 105 0 105 0 0 -450z m3640 260 l0 -80 50 0 50 0 0 -70 0 -70 -50 0 -50
0 0 -165 c0 -184 0 -185 74 -185 l36 0 0 -69 0 -70 -46 -7 c-69 -10 -163 1
-192 23 -65 48 -67 57 -70 274 l-3 199 -45 0 -44 0 0 70 0 70 45 0 45 0 0 80
0 80 100 0 100 0 0 -80z m-4086 -85 c99 -47 147 -132 154 -272 l5 -93 -197 0
-197 0 7 -22 c31 -98 144 -126 240 -59 l40 28 42 -49 c23 -28 42 -53 42 -57 0
-16 -58 -61 -105 -83 -41 -19 -67 -23 -145 -23 -82 0 -103 4 -150 26 -135 63
-200 205 -170 370 22 122 93 213 190 244 62 20 193 15 244 -10z m972 -3 c75
-38 120 -107 126 -192 l3 -35 -92 -3 -92 -3 -6 35 c-11 57 -63 87 -114 66 -39
-16 -53 -51 -59 -145 -4 -85 8 -154 34 -180 42 -41 116 -25 136 31 l12 34 94
0 94 0 -7 -37 c-23 -122 -110 -193 -246 -201 -136 -8 -231 44 -286 156 -26 52
-28 66 -28 172 0 106 2 120 28 172 32 65 90 120 151 142 60 23 198 16 252 -12z
m1360 9 c18 -11 40 -30 50 -43 l18 -25 23 28 c35 41 100 62 177 57 73 -4 106
-22 143 -78 38 -55 43 -96 43 -337 l0 -233 -100 0 -100 0 -1 208 c0 236 -7
271 -54 284 -34 9 -62 3 -87 -20 -16 -14 -18 -38 -18 -244 l0 -228 -105 0
-105 0 0 228 c0 260 -2 267 -68 267 -26 0 -48 -7 -61 -19 -20 -18 -21 -29 -21
-248 l0 -228 -105 0 -105 0 0 315 0 315 100 0 100 0 0 -26 0 -25 33 25 c48 36
74 45 147 45 47 1 74 -4 96 -18z m947 8 c67 -17 131 -69 163 -135 23 -48 29
-74 32 -151 l4 -93 -196 0 c-108 0 -196 -3 -196 -6 0 -3 7 -21 16 -39 23 -50
59 -69 126 -69 48 -1 64 4 101 30 l43 31 42 -49 c23 -28 42 -54 42 -58 0 -18
-72 -69 -127 -90 -81 -31 -206 -25 -278 12 -131 68 -193 203 -166 366 27 164
134 259 294 261 32 1 77 -4 100 -10z m1358 -6 c73 -23 139 -89 168 -169 20
-51 22 -74 19 -164 -3 -89 -8 -113 -31 -156 -56 -109 -156 -160 -297 -152
-123 7 -206 64 -258 178 -21 47 -23 240 -3 290 52 126 145 189 282 190 37 0
91 -8 120 -17z m-5747 -185 c21 -129 31 -176 37 -160 5 12 27 94 50 182 l42
160 71 0 72 0 43 -162 c24 -90 46 -169 50 -175 4 -7 20 66 36 162 l29 175 97
0 97 0 -9 -37 c-4 -21 -38 -161 -74 -312 -36 -151 -65 -276 -65 -278 0 -2 -39
-2 -87 -1 l-87 3 -47 166 c-25 91 -48 172 -51 179 -2 8 -27 -67 -54 -165 l-51
-180 -85 -3 c-76 -2 -87 -1 -92 15 -3 10 -34 144 -71 298 -36 154 -68 288 -71
298 -5 15 4 17 93 17 l98 0 29 -182z m9495 53 c12 -8 12 -13 -3 -36 -24 -37
-33 -166 -14 -219 7 -22 25 -48 39 -58 25 -19 26 -19 63 3 20 12 40 19 43 15
3 -3 -2 -9 -11 -12 -10 -4 -33 -22 -51 -41 -19 -19 -39 -32 -45 -28 -6 3 -9 1
-8 -7 2 -8 -4 -12 -15 -10 -25 4 -157 84 -157 95 0 4 -4 6 -9 3 -5 -3 -39 14
-76 39 -37 24 -87 52 -111 62 -58 24 -57 45 4 69 26 10 52 19 57 20 6 1 55 22
109 48 54 25 102 44 106 41 5 -3 12 0 15 6 4 5 13 8 21 5 8 -3 14 -1 14 4 0
12 11 12 29 1z m-2064 -102 c-43 -105 -52 -119 -149 -249 -155 -207 -401 -425
-491 -435 -14 -1 -38 -13 -52 -26 -43 -40 -21 -4 40 65 32 37 113 112 180 168
190 160 341 317 422 440 38 59 71 105 73 104 1 -2 -9 -32 -23 -67z m-9371
-105 c31 -31 13 -74 -31 -74 -33 0 -49 35 -28 66 18 28 37 31 59 8z m-5584
-194 c0 -5 -7 -10 -15 -10 -8 0 -15 5 -15 10 0 6 7 10 15 10 8 0 15 -4 15 -10z
m11555 -660 c-3 -5 -18 -9 -33 -9 l-27 1 30 8 c17 4 31 8 33 9 2 0 0 -3 -3 -9z
m-198 -36 c-3 -3 -12 -4 -19 -1 -8 3 -5 6 6 6 11 1 17 -2 13 -5z m-9502 -151
c-4 -82 -6 -180 -5 -219 3 -142 -27 -344 -96 -653 -79 -349 -201 -653 -417
-1036 -31 -54 -159 -227 -226 -304 -188 -216 -407 -398 -595 -495 -87 -45
-102 -50 -178 -53 l-83 -4 35 20 c66 36 78 58 90 156 20 180 6 571 -25 673 -9
30 -31 70 -51 91 -19 21 -34 41 -34 45 0 3 42 6 94 6 94 0 225 29 330 74 47
20 203 107 269 151 119 80 351 295 446 414 155 196 308 542 375 850 51 233 54
249 62 344 11 141 18 100 9 -60z m9310 108 c-3 -5 -41 -21 -85 -36 -85 -28
-119 -53 -59 -42 19 3 29 3 22 1 -7 -3 -10 -11 -7 -18 3 -8 -25 -26 -78 -50
-107 -49 -238 -136 -291 -193 -23 -25 -70 -76 -104 -112 -35 -36 -63 -70 -63
-76 0 -5 -7 -23 -16 -40 -26 -49 -100 -245 -118 -310 -25 -90 -32 -173 -23
-242 8 -57 12 -64 45 -85 19 -13 40 -26 45 -29 4 -3 -6 -21 -23 -40 -18 -19
-44 -50 -58 -69 -15 -19 -29 -37 -32 -40 -42 -40 -139 -202 -183 -306 -44
-106 -62 -110 -53 -13 3 41 16 117 27 169 58 270 71 370 65 500 -4 69 -16 176
-28 238 -25 132 -22 147 47 253 124 190 328 342 580 432 101 37 319 102 365
110 14 2 26 5 28 6 2 0 1 -3 -3 -8z m1290 -372 c59 -11 135 -43 135 -57 0 -13
-141 -156 -269 -273 -299 -273 -620 -673 -891 -1109 -69 -111 -152 -230 -190
-273 -27 -30 20 87 98 245 51 103 92 191 92 195 0 3 8 16 18 27 33 39 -13 -2
-136 -124 -141 -138 -278 -247 -355 -283 -78 -37 -174 -41 -254 -12 -125 45
-235 157 -282 285 -7 19 -15 73 -17 120 -7 148 45 296 124 352 101 73 150 103
272 172 149 84 144 81 285 164 116 68 309 188 445 276 218 142 480 254 690
295 65 13 167 13 235 0z m-13747 -257 c2 -7 -3 -12 -12 -12 -9 0 -16 7 -16 16
0 17 22 14 28 -4z m4510 -114 c27 -27 4 -78 -37 -78 -14 0 -41 29 -41 45 0 35
53 58 78 33z m4797 -549 c22 -6 52 -13 68 -16 15 -3 27 -9 27 -14 0 -5 -10 -7
-22 -4 -62 13 -189 25 -271 25 -112 -1 -288 -17 -299 -28 -23 -23 47 -68 242
-152 103 -45 104 -49 5 -24 l-20 5 20 -12 c11 -7 46 -14 77 -15 34 -2 68 -10
84 -21 15 -9 57 -25 93 -35 36 -10 98 -27 136 -38 56 -16 62 -20 28 -16 -34 3
-42 1 -46 -15 -3 -11 -14 -19 -26 -19 -12 0 -21 -4 -21 -10 0 -17 -18 -11 -24
8 -7 19 -126 86 -136 75 -3 -3 1 -8 9 -11 7 -2 30 -21 50 -42 l36 -38 0 -113
c0 -99 -3 -120 -23 -161 -15 -30 -29 -45 -37 -42 -20 8 -86 -64 -120 -130 -16
-32 -35 -60 -41 -63 -6 -2 -53 15 -105 37 -164 72 -322 127 -384 134 -42 5
-98 1 -185 -13 -69 -12 -183 -28 -255 -36 -71 -9 -168 -28 -215 -41 -47 -14
-130 -37 -185 -51 -222 -55 -466 -160 -579 -249 -107 -84 -264 -338 -317 -511
-5 -18 -14 -35 -19 -38 -6 -4 -10 -14 -10 -23 0 -11 10 -6 36 19 38 35 140
168 142 182 1 10 34 41 96 87 26 19 78 61 117 93 85 69 120 78 82 20 -17 -25
-17 -26 5 -12 11 7 25 9 29 5 4 -5 2 -11 -5 -13 -6 -3 -10 -9 -7 -14 4 -5 -6
-20 -20 -35 -30 -30 -25 -47 12 -33 14 5 28 7 31 4 9 -9 -61 -76 -103 -97 -53
-28 -142 -123 -214 -229 -75 -109 -91 -142 -129 -259 -33 -102 -38 -134 -48
-332 -6 -115 -8 -126 -24 -118 -9 5 -25 28 -35 52 -10 24 -35 66 -55 93 -20
28 -48 71 -63 98 -15 26 -32 47 -37 47 -28 0 11 172 75 333 5 12 2 17 -9 17
-18 0 -19 2 -6 54 6 26 5 46 -2 59 -18 34 10 158 94 419 84 262 102 298 179
360 86 69 386 267 514 338 186 104 737 377 886 438 256 105 466 145 724 137
88 -3 178 -10 200 -16z m21139 -400 c-3 -5 -10 -7 -15 -3 -5 3 -7 10 -3 15 3
5 10 7 15 3 5 -3 7 -10 3 -15z m-19893 -159 c17 -12 82 -28 184 -45 87 -14
170 -28 184 -31 l26 -6 -26 15 c-15 8 -68 23 -118 32 -90 18 -118 39 -38 29
183 -22 319 -54 439 -103 94 -37 117 -51 112 -66 -4 -10 3 -42 32 -160 14 -59
16 -115 3 -144 -23 -52 -50 -50 -117 5 -33 27 -72 60 -88 72 -80 65 -325 217
-454 282 -80 40 -153 76 -162 81 -10 5 -25 9 -33 9 -8 0 -20 9 -27 20 -7 11
-19 20 -26 20 -7 0 -10 5 -7 10 9 15 85 1 116 -20z m-1158 -180 c-59 -12 -122
-46 -170 -93 -27 -26 -43 -35 -43 -26 0 17 63 81 100 100 30 15 83 27 125 27
24 0 21 -2 -12 -8z m-10713 -45 c0 -8 -9 -15 -20 -15 -20 0 -26 11 -13 23 12
13 33 7 33 -8z m9677 -31 c-3 -3 -12 -4 -19 -1 -8 3 -5 6 6 6 11 1 17 -2 13
-5z m-70 -10 c-3 -3 -12 -4 -19 -1 -8 3 -5 6 6 6 11 1 17 -2 13 -5z m-937
-678 c0 -3 -9 -6 -20 -6 -19 0 -27 20 -14 33 6 6 34 -16 34 -27z m-56 -81 c-4
-17 -10 -23 -16 -17 -6 6 -6 18 2 32 15 28 23 20 14 -15z m-2669 -1184 c-4
-14 1 -20 20 -25 30 -8 33 -26 5 -26 -11 0 -23 -7 -27 -15 -5 -14 -8 -14 -22
-2 -9 8 -23 17 -31 20 -11 4 -10 7 7 12 12 4 24 18 27 31 4 13 11 24 17 24 6
0 8 -8 4 -19z m-7347 -2026 c7 -93 9 -186 6 -206 -5 -30 -2 -41 16 -59 18 -18
28 -21 58 -14 76 15 599 -7 587 -26 -2 -4 -57 -10 -122 -13 -65 -4 -183 -12
-263 -18 -80 -5 -162 -10 -182 -10 -40 0 -83 -27 -93 -59 -3 -10 1 -33 10 -49
13 -26 14 -49 5 -163 -25 -338 -33 -424 -39 -436 -4 -7 -13 63 -19 155 -7 92
-17 188 -23 213 -12 53 -15 198 -4 257 6 34 3 45 -14 62 -17 17 -32 21 -79 19
-31 -1 -115 4 -187 10 -71 6 -187 14 -257 18 -71 3 -126 9 -123 13 2 5 77 11
166 15 88 4 208 11 266 17 90 8 109 7 129 -6 55 -36 115 2 99 63 -10 39 -9 59
9 226 26 247 37 245 54 -9z m13827 -344 c81 -9 99 -19 134 -78 10 -17 12 -17
21 0 6 9 17 17 25 17 23 0 65 -22 59 -32 -10 -16 7 -48 34 -63 15 -8 23 -14
17 -14 -5 -1 -30 13 -55 30 -36 25 -52 30 -82 26 -34 -5 -40 -2 -55 25 -20 33
-89 68 -137 68 -17 1 -60 7 -96 14 l-65 14 60 0 c33 1 96 -3 140 -7z m366 -31
c10 -6 19 -16 19 -22 0 -9 -3 -9 -12 0 -18 18 -56 14 -67 -7 -8 -14 -6 -23 10
-37 18 -16 35 -19 100 -17 72 3 79 1 90 -20 6 -12 13 -23 14 -25 2 -2 14 8 28
22 18 18 36 26 59 25 l33 -1 -33 -8 c-19 -4 -39 -13 -44 -18 -15 -15 -2 -42
21 -42 23 0 71 20 71 29 0 19 216 -14 425 -64 l60 -14 -55 4 c-30 2 -102 11
-160 20 -238 35 -261 36 -291 14 -29 -20 -50 -18 -82 9 -16 14 -19 14 -33 -7
-9 -12 -22 -20 -28 -18 -7 3 -19 1 -26 -3 -8 -5 -19 -3 -27 5 -19 19 -16 27 6
16 13 -7 23 -6 36 3 34 25 -2 78 -41 61 -11 -4 -23 -7 -27 -6 -5 1 -6 -3 -3
-8 4 -5 2 -12 -3 -15 -5 -4 -12 -2 -16 4 -3 6 -23 17 -43 26 -55 23 -73 43
-61 66 6 10 20 23 32 28 29 11 26 11 48 0z m-379 -52 c40 -12 105 -69 73 -64
-10 1 -26 12 -36 24 -18 23 -109 48 -109 31 0 -5 -5 -9 -11 -9 -5 0 -7 4 -4
10 3 5 -4 12 -17 14 -59 13 -58 15 2 10 36 -3 82 -10 102 -16z m345 -94 c-3
-3 -12 -4 -19 -1 -8 3 -5 6 6 6 11 1 17 -2 13 -5z m362 -68 c10 -12 7 -18 -19
-31 -17 -9 -36 -12 -43 -8 -8 5 -3 9 13 14 l25 7 -25 1 c-24 2 -24 2 -6 16 25
19 40 19 55 1z m182 -52 l61 -56 66 4 c37 1 69 6 72 10 3 3 39 9 80 12 l75 5
-72 -12 c-90 -15 -104 -27 -67 -56 33 -26 28 -26 -74 1 -72 18 -91 28 -143 75
-62 55 -91 64 -125 38 -24 -18 -34 -19 -34 -2 0 17 36 35 73 36 20 1 44 -14
88 -55z m-318 19 c-7 -2 -21 -2 -30 0 -10 3 -4 5 12 5 17 0 24 -2 18 -5z m948
-13 c10 -6 19 -20 19 -32 0 -20 -1 -20 -18 -5 -10 10 -26 17 -35 17 -10 0 -14
5 -11 15 7 18 18 19 45 5z m-760 -27 c13 -16 12 -17 -3 -4 -10 7 -18 15 -18
17 0 8 8 3 21 -13z m695 6 c3 -6 -11 -29 -33 -51 -41 -41 -87 -58 -153 -57
l-35 0 44 14 c28 9 60 30 88 59 43 45 75 57 89 35z m-143 -16 c-7 -2 -19 -2
-25 0 -7 3 -2 5 12 5 14 0 19 -2 13 -5z m1527 -101 c0 -5 -9 -17 -20 -27 -20
-18 -22 -18 -38 -1 -15 15 -15 18 -2 26 19 12 60 13 60 2z m100 -42 c9 -6 20
-5 30 3 11 8 11 7 -1 -7 -17 -18 -59 -15 -59 5 0 11 11 11 30 -1z m-229 -20
c25 -14 24 -52 -1 -75 -11 -10 -22 -16 -25 -13 -3 3 1 11 10 18 8 7 15 16 15
21 0 12 -42 11 -74 -1 -25 -9 -25 -9 -9 -50 15 -38 15 -41 -3 -55 -10 -8 -28
-14 -39 -13 -17 1 -17 1 3 5 27 5 29 29 3 43 -49 26 -94 -7 -100 -72 -1 -5
-15 -8 -32 -8 -22 0 -40 -9 -59 -30 -29 -31 -53 -42 -29 -13 16 19 307 253
315 253 3 0 14 -5 25 -10z m413 -21 c-7 -11 -41 -12 -48 0 -9 13 2 19 29 13
14 -2 22 -8 19 -13z m-120 -40 c19 -20 33 -28 45 -23 56 24 107 15 121 -22 12
-31 -6 -64 -34 -64 -18 0 -18 1 -3 13 21 15 12 57 -12 57 -20 0 -111 -56 -111
-68 0 -5 -21 -24 -47 -42 -41 -28 -44 -30 -25 -8 13 14 31 41 41 59 17 30 17
37 5 61 -17 33 -65 60 -91 52 -66 -21 -82 -45 -59 -89 27 -52 -16 -114 -70
-101 -33 9 -31 24 3 18 18 -3 30 1 39 13 20 27 6 45 -37 45 -52 0 -84 -16
-104 -55 -10 -17 -23 -32 -29 -32 -6 0 -25 -3 -41 -6 l-30 -7 32 17 c17 9 37
29 44 45 6 15 18 28 25 28 23 0 92 69 110 110 16 36 21 39 63 42 79 5 133 -9
165 -43z m256 43 c0 -14 -23 -32 -42 -32 -10 0 -18 5 -18 10 0 6 9 10 20 10
11 0 20 5 20 10 0 6 5 10 10 10 6 0 10 -4 10 -8z m-592 -260 c2 -8 -9 -12 -35
-12 -38 0 -38 0 -13 14 28 16 42 15 48 -2z m-328 -12 c-24 -15 -36 -11 -14 4
10 8 21 12 24 10 2 -3 -2 -9 -10 -14z"/>
<path d="M32050 18233 c-33 -17 -35 -21 -38 -73 -3 -66 17 -105 79 -150 89
-64 153 -61 189 9 25 50 25 84 0 135 -39 81 -151 120 -230 79z"/>
<path d="M20443 16813 c-17 -6 -17 -23 0 -23 8 0 14 7 14 15 0 8 -1 15 -1 14
-1 0 -7 -3 -13 -6z"/>
<path d="M19335 16440 c-3 -5 1 -10 10 -10 9 0 13 5 10 10 -3 6 -8 10 -10 10
-2 0 -7 -4 -10 -10z"/>
<path d="M19410 16404 c0 -8 5 -12 11 -9 6 4 9 0 7 -11 -2 -14 2 -18 17 -16
29 5 30 10 10 32 -22 24 -45 26 -45 4z"/>
<path d="M19356 16365 c-19 -14 -18 -15 10 -14 16 0 23 3 16 6 -6 2 -10 9 -6
14 7 12 2 11 -20 -6z"/>
<path d="M19565 16319 c-4 -6 -5 -13 -2 -16 7 -7 27 6 27 18 0 12 -17 12 -25
-2z"/>
<path d="M19450 16303 c1 -42 56 -77 144 -92 61 -11 70 -10 87 5 20 18 26 64
9 64 -6 0 -10 -8 -8 -17 2 -13 -7 -20 -32 -26 -29 -7 -46 -4 -97 19 -44 19
-63 34 -63 46 0 11 -7 18 -20 18 -12 0 -20 -7 -20 -17z"/>
<path d="M20275 16220 c-4 -6 -2 -17 4 -23 15 -15 25 -2 13 19 -7 12 -11 13
-17 4z"/>
<path d="M19710 16200 c0 -5 4 -10 9 -10 6 0 13 5 16 10 3 6 -1 10 -9 10 -9 0
-16 -4 -16 -10z"/>
<path d="M19540 16193 c-14 -3 -47 -28 -75 -57 -85 -88 -87 -89 -135 -76 -41
11 -80 6 -80 -10 0 -5 9 -12 20 -15 31 -10 17 -20 -46 -35 -65 -16 -130 -59
-145 -97 -5 -14 -7 -28 -4 -31 2 -3 32 16 65 42 67 53 93 63 164 64 56 1 64 6
46 27 -17 20 -6 29 38 32 131 9 119 2 126 83 2 19 4 39 5 44 0 5 14 6 30 3 26
-6 51 7 51 25 0 8 -17 9 -60 1z"/>
<path d="M19596 16096 c-24 -22 -34 -46 -20 -46 7 0 29 25 45 53 14 24 5 21
-25 -7z"/>
<path d="M19230 15891 c-6 -12 -16 -19 -21 -15 -6 3 -19 -2 -30 -12 -21 -19
-25 -34 -9 -34 16 0 86 67 78 75 -3 4 -11 -3 -18 -14z"/>
<path d="M18330 15820 c0 -5 5 -10 10 -10 6 0 10 5 10 10 0 6 -4 10 -10 10 -5
0 -10 -4 -10 -10z"/>
<path d="M22645 15780 c-7 -12 2 -30 16 -30 12 0 12 27 0 35 -5 3 -12 1 -16
-5z"/>
<path d="M17608 15694 c-5 -4 -8 -16 -8 -28 0 -14 3 -17 11 -9 6 6 9 19 7 28
-1 9 -6 13 -10 9z"/>
<path d="M17730 15671 c-58 -31 -92 -43 -131 -46 -38 -2 -48 -8 -71 -40 -47
-64 -33 -118 29 -113 37 3 49 -6 57 -39 22 -90 27 -100 53 -113 35 -17 61 -14
95 11 15 10 29 15 32 11 5 -8 -6 -63 -19 -94 -9 -22 -1 -23 19 -2 9 8 16 27
16 40 0 14 18 57 39 97 21 40 42 82 46 95 11 37 -23 109 -62 132 -32 19 -36
19 -66 4 -17 -9 -40 -27 -50 -40 -10 -13 -25 -24 -33 -24 -12 0 -12 5 -2 31
12 29 40 50 82 63 15 5 16 9 6 21 -14 17 -18 17 -40 6z"/>
<path d="M18728 15643 c6 -2 18 -2 25 0 6 3 1 5 -13 5 -14 0 -19 -2 -12 -5z"/>
<path d="M18931 15618 c-12 -19 -10 -24 19 -50 32 -27 33 -29 14 -44 -28 -22
-64 -36 -104 -40 -50 -5 -85 -35 -85 -73 0 -17 -3 -31 -7 -31 -5 0 -8 -4 -8
-10 0 -14 59 23 65 41 3 8 20 23 39 31 32 16 35 16 55 -3 26 -25 26 -35 2 -49
-16 -8 -23 -6 -35 12 -11 15 -16 18 -16 8 0 -15 -15 -26 -72 -52 -24 -10 -28
-19 -28 -52 l0 -39 23 20 c30 27 57 36 57 19 0 -21 25 -26 49 -9 17 11 21 23
19 46 -2 24 1 33 15 35 9 2 17 -1 17 -7 0 -12 53 2 84 23 60 40 68 56 64 118
-4 50 -9 63 -38 93 -28 29 -41 35 -75 35 -30 0 -43 -5 -54 -22z m69 -48 c0 -5
-7 -10 -15 -10 -8 0 -15 5 -15 10 0 6 7 10 15 10 8 0 15 -4 15 -10z"/>
<path d="M18635 15603 c-11 -3 -24 -10 -30 -15 -12 -13 35 0 50 13 5 5 7 8 5
8 -3 -1 -14 -3 -25 -6z"/>
<path d="M22667 15586 c-4 -9 -1 -19 6 -23 7 -5 17 -17 23 -27 6 -11 17 -22
25 -24 10 -4 10 0 -3 14 -9 11 -23 32 -31 47 -11 21 -16 24 -20 13z"/>
<path d="M18162 15484 c-12 -8 -22 -23 -22 -32 0 -13 4 -11 16 6 9 13 26 27
38 32 13 6 15 9 6 9 -9 1 -26 -6 -38 -15z"/>
<path d="M18350 15419 c-24 -11 -47 -23 -50 -28 -3 -4 -20 -13 -38 -20 -30
-13 -33 -17 -30 -55 5 -100 0 -125 -32 -144 -23 -14 -27 -21 -18 -30 23 -23
54 -12 101 36 43 43 47 52 47 96 0 61 46 134 91 143 16 3 26 9 23 14 -9 15
-46 10 -94 -12z"/>
<path d="M17146 15189 c3 -6 1 -15 -7 -20 -11 -6 -10 -14 4 -44 21 -44 22
-133 2 -159 -8 -11 -15 -29 -15 -41 0 -21 26 -65 38 -65 4 0 27 39 51 86 31
59 42 90 35 99 -5 8 -29 45 -54 84 -25 39 -49 71 -53 71 -5 0 -5 -5 -1 -11z"/>
<path d="M17518 15172 l-31 -26 28 -12 c17 -7 23 -14 16 -18 -6 -4 -27 3 -47
15 l-36 22 -21 -25 c-12 -14 -30 -28 -39 -31 -14 -5 -18 -18 -18 -56 0 -45 -4
-52 -35 -79 -30 -24 -37 -38 -45 -88 -11 -69 -10 -79 23 -159 30 -73 52 -87
129 -82 60 3 72 -4 56 -36 -12 -24 -5 -31 26 -23 26 6 46 48 46 95 0 15 11 42
24 61 12 19 33 68 45 107 13 40 27 75 32 78 5 4 9 17 9 29 0 18 10 27 43 40
47 18 122 21 132 6 3 -5 12 -10 20 -10 14 0 10 35 -7 57 -5 6 -6 32 -3 57 l7
46 -66 0 c-37 0 -83 7 -103 15 -20 9 -63 21 -95 29 -58 13 -60 13 -90 -12z"/>
<path d="M18337 15159 c6 -6 9 -19 6 -28 -4 -14 -3 -14 6 -1 15 21 14 27 -6
35 -14 5 -15 3 -6 -6z"/>
<path d="M18387 15139 c7 -7 15 -10 18 -7 3 3 -2 9 -12 12 -14 6 -15 5 -6 -5z"/>
<path d="M18390 15076 c0 -2 9 -6 20 -9 11 -3 18 -1 14 4 -5 9 -34 13 -34 5z"/>
<path d="M17080 14815 c4 -25 3 -45 -2 -45 -4 0 -8 -9 -8 -19 0 -11 -4 -22 -8
-25 -5 -3 -8 -21 -7 -40 2 -23 -2 -37 -12 -40 -8 -3 -12 -9 -9 -14 5 -8 -26
-108 -38 -119 -3 -3 -6 -13 -6 -20 0 -8 -9 -33 -20 -55 -23 -48 -26 -113 -7
-125 30 -17 -36 -201 -73 -205 -8 0 -21 -1 -27 -1 -7 1 -13 -3 -13 -8 0 -5 10
-9 23 -9 13 0 27 -4 33 -9 5 -5 41 -14 79 -20 60 -9 74 -15 98 -43 30 -36 35
-53 11 -44 -22 8 -244 -5 -244 -15 0 -5 6 -6 14 -3 8 3 32 0 54 -6 33 -8 42
-16 47 -40 4 -20 11 -27 21 -23 8 3 14 11 14 18 0 22 36 59 51 52 8 -4 43 -25
78 -47 59 -38 68 -40 140 -40 89 0 113 -10 88 -35 -10 -9 -17 -20 -17 -24 0
-4 -18 -25 -39 -48 -43 -44 -102 -63 -130 -40 -12 10 -13 9 -1 -13 19 -36 21
-36 110 -35 l81 1 45 45 c25 24 56 68 71 97 23 47 43 67 43 43 0 -5 3 -18 7
-28 6 -16 5 -17 -12 -3 -17 14 -18 13 -10 -5 4 -11 9 -30 9 -42 1 -13 7 -23
15 -23 9 0 11 -8 7 -25 -8 -30 18 -95 37 -95 8 0 26 9 41 21 32 25 34 14 4
-19 -22 -23 -22 -24 -3 -18 11 3 26 1 34 -3 11 -7 3 -17 -37 -42 -29 -17 -52
-38 -52 -45 0 -8 -7 -14 -15 -14 -8 0 -15 -5 -15 -10 0 -6 11 -5 28 4 15 7 51
19 80 25 29 6 64 18 77 27 14 9 51 24 82 34 45 14 62 25 77 49 16 28 17 36 6
59 -21 47 -22 162 -1 222 11 30 26 59 35 66 21 15 20 30 -1 38 -20 8 -26 2
-43 -44 -19 -49 -28 -59 -50 -53 -11 3 -20 1 -20 -5 0 -5 -14 -15 -31 -22 -18
-8 -37 -27 -47 -49 -14 -30 -23 -37 -52 -39 -19 -2 -47 -13 -62 -24 -43 -30
-52 -17 -13 18 19 17 35 27 35 23 0 -5 5 -9 11 -9 5 0 7 5 3 12 -5 8 -2 9 9 5
11 -4 25 2 38 16 l20 22 -21 3 c-12 2 -28 -2 -36 -9 -22 -18 -26 -6 -10 37 8
21 15 35 16 29 1 -17 29 39 29 60 0 14 -5 10 -19 -17 -11 -20 -28 -39 -39 -43
-18 -6 -61 -89 -61 -119 0 -9 -6 -16 -14 -16 -9 0 -16 18 -20 52 -4 29 -12 58
-18 65 -6 7 -9 13 -7 14 2 0 13 2 24 4 29 6 65 52 65 83 0 15 5 45 12 67 l11
40 7 -33 c11 -47 18 -50 45 -17 29 36 30 44 8 52 -10 4 -24 13 -31 20 -8 7
-18 11 -23 7 -6 -3 -16 -1 -23 5 -14 12 -83 -20 -79 -38 2 -6 -4 -8 -12 -5
-11 5 -15 -1 -15 -20 0 -22 4 -26 31 -26 25 0 30 -3 27 -21 -2 -15 -23 -32
-65 -55 -53 -28 -64 -31 -80 -19 -10 7 -19 18 -19 24 -1 6 -2 16 -3 21 0 6
-12 15 -26 20 -16 6 -23 14 -19 25 4 9 1 15 -9 15 -8 0 -27 18 -42 40 -15 22
-39 43 -51 46 -13 3 -21 10 -18 15 3 5 1 9 -3 9 -5 0 -15 33 -22 74 -10 55
-10 82 -2 107 12 36 32 201 26 208 -2 2 -10 1 -18 -2 -8 -3 -19 -36 -27 -83
-16 -94 -46 -135 -100 -137 -24 -1 -38 -8 -45 -22 -6 -11 -22 -22 -35 -23 -20
-3 -23 -1 -12 9 6 7 12 27 12 43 0 25 8 36 41 56 49 30 86 93 104 180 12 57
12 74 -2 135 -17 74 -37 115 -58 115 -8 0 -10 -12 -5 -45z m15 -484 c-8 -13
-35 -15 -35 -2 0 5 8 11 18 13 21 5 26 2 17 -11z m-35 -54 c0 -17 -38 -52 -47
-44 -10 11 15 57 32 57 8 0 15 -6 15 -13z m611 -180 c-13 -13 -26 -3 -16 12 3
6 11 8 17 5 6 -4 6 -10 -1 -17z m-348 -214 c-7 -2 -21 -2 -30 0 -10 3 -4 5 12
5 17 0 24 -2 18 -5z"/>
<path d="M18084 14835 c-16 -24 -16 -27 1 -45 26 -28 63 -26 71 4 10 41 1 61
-28 64 -20 2 -31 -4 -44 -23z"/>
<path d="M17597 14668 c-15 -30 -15 -34 1 -51 15 -17 15 -20 -8 -37 -19 -15
-22 -22 -13 -31 15 -15 42 -5 49 18 3 10 10 27 15 38 5 11 10 36 11 55 3 29
-1 36 -18 38 -15 2 -25 -6 -37 -30z"/>
<path d="M17243 14642 c-29 -4 -29 -18 -1 -47 26 -27 48 -22 48 10 0 28 -18
42 -47 37z"/>
<path d="M17348 14460 c-41 -43 -68 -90 -68 -116 0 -10 -10 -28 -22 -42 -23
-23 -23 -24 -4 -38 19 -13 46 -19 46 -10 0 3 -4 15 -9 29 -8 20 -4 29 23 58
18 19 49 47 69 62 30 23 37 34 37 62 0 47 -24 45 -72 -5z"/>
<path d="M17593 14493 c-18 -6 -16 -23 1 -23 17 0 30 16 19 23 -5 2 -14 2 -20
0z"/>
<path d="M17691 14484 c0 -11 3 -14 6 -6 3 7 2 16 -1 19 -3 4 -6 -2 -5 -13z"/>
<path d="M17547 14441 c-5 -22 1 -33 14 -25 12 7 12 44 0 44 -5 0 -11 -9 -14
-19z"/>
<path d="M17642 14413 c-12 -10 -27 -40 -33 -68 -6 -27 -16 -58 -21 -68 -11
-22 -6 -30 13 -22 20 9 92 123 93 148 1 28 -25 33 -52 10z"/>
<path d="M17855 14359 c-4 -6 -5 -12 -2 -15 2 -3 7 2 10 11 7 17 1 20 -8 4z"/>
<path d="M17700 14302 c-14 -15 -36 -35 -49 -46 -22 -16 -22 -19 -7 -28 17 -9
36 -3 36 12 0 5 14 22 30 38 28 29 39 52 23 52 -5 -1 -19 -13 -33 -28z"/>
<path d="M17301 14214 c0 -11 3 -14 6 -6 3 7 2 16 -1 19 -3 4 -6 -2 -5 -13z"/>
<path d="M17675 14219 c-11 -17 1 -21 15 -4 8 9 8 15 2 15 -6 0 -14 -5 -17
-11z"/>
<path d="M17762 14010 c-28 -38 -33 -73 -10 -78 11 -2 22 6 29 22 7 14 16 26
21 26 4 0 8 14 8 30 0 39 -20 39 -48 0z"/>
<path d="M16786 14023 c-9 -10 -7 -43 3 -43 11 0 21 39 11 45 -4 2 -10 2 -14
-2z"/>
<path d="M17930 13971 c0 -6 4 -13 10 -16 6 -3 7 1 4 9 -7 18 -14 21 -14 7z"/>
<path d="M17705 13920 c-19 -8 -19 -9 3 -9 12 -1 22 4 22 9 0 6 -1 10 -2 9 -2
0 -12 -4 -23 -9z"/>
<path d="M16939 13883 c0 -10 -2 -35 -3 -55 -1 -20 2 -34 6 -31 5 2 7 10 6 16
-1 7 3 22 10 34 8 14 9 24 2 28 -6 4 -8 11 -5 16 4 5 1 9 -4 9 -6 0 -11 -8
-12 -17z"/>
<path d="M18055 13850 c3 -5 8 -10 11 -10 2 0 4 5 4 10 0 6 -5 10 -11 10 -5 0
-7 -4 -4 -10z"/>
<path d="M17535 12940 c3 -5 10 -10 16 -10 5 0 9 5 9 10 0 6 -7 10 -16 10 -8
0 -12 -4 -9 -10z"/>
<path d="M17470 12896 c0 -12 51 -35 65 -29 13 4 7 9 -22 19 -43 15 -43 15
-43 10z"/>
<path d="M17630 12781 c0 -6 5 -13 10 -16 6 -3 10 1 10 9 0 9 -4 16 -10 16 -5
0 -10 -4 -10 -9z"/>
<path d="M17530 12656 c0 -23 6 -50 13 -59 11 -16 16 -14 52 23 34 35 37 42
25 54 -8 7 -32 16 -52 19 l-38 6 0 -43z"/>
<path d="M17818 12280 c-71 -12 -151 -53 -197 -99 -23 -23 -41 -45 -41 -49 0
-5 18 -16 40 -26 22 -10 41 -23 41 -29 1 -7 2 -58 3 -115 1 -64 5 -105 12
-110 79 -50 160 -153 148 -187 -9 -24 -22 -18 -29 14 -6 27 -8 28 -46 21 -41
-8 -68 -33 -80 -77 -8 -24 11 -46 49 -57 26 -9 28 -21 5 -34 -13 -8 -14 -16
-6 -49 5 -21 7 -47 3 -58 -4 -10 -5 -29 -2 -41 4 -22 6 -23 33 -9 15 8 32 21
36 28 12 20 99 77 117 77 9 0 16 -6 16 -14 0 -8 7 -16 15 -18 22 -5 -3 -48
-40 -68 -26 -14 -30 -23 -33 -63 -3 -48 -1 -50 43 -50 6 0 11 -11 12 -24 4
-48 7 -53 22 -51 10 2 15 -4 15 -15 -2 -13 3 -16 18 -11 13 4 19 1 17 -8 -3
-19 12 -49 21 -43 4 3 10 -2 14 -10 7 -19 46 -20 46 -1 0 8 5 18 11 21 16 11
59 -4 59 -20 0 -8 9 -19 20 -25 23 -12 25 -32 8 -59 -10 -16 -8 -28 12 -65 25
-50 27 -51 53 -32 16 12 17 49 17 528 0 296 -5 542 -11 579 -20 127 -73 200
-169 232 -58 19 -191 28 -252 17z"/>
<path d="M17560 12002 c0 -15 32 -74 37 -69 10 10 -10 77 -23 77 -8 0 -14 -4
-14 -8z"/>
<path d="M17560 11786 c0 -22 3 -27 11 -19 8 8 8 16 0 30 -9 16 -10 14 -11
-11z"/>
<path d="M16380 11383 c0 -172 3 -223 13 -223 15 0 253 -89 330 -124 l57 -26
0 83 0 83 -41 39 c-54 52 -262 276 -316 340 l-42 50 -1 -222z"/>
<path d="M17597 11564 c-11 -11 13 -34 35 -34 13 0 18 6 16 18 -3 17 -38 29
-51 16z"/>
<path d="M15258 11449 c-187 -27 -287 -144 -290 -338 -1 -133 54 -213 170
-247 74 -22 191 -10 275 29 79 36 177 134 177 176 0 27 -5 33 -40 47 -45 18
-100 75 -100 104 0 27 43 57 95 64 l45 7 0 85 0 84 -137 -1 c-76 -1 -164 -5
-195 -10z"/>
<path d="M18629 14873 c-33 -40 -41 -53 -32 -53 11 0 57 60 50 66 -2 2 -10 -4
-18 -13z"/>
<path d="M18508 14603 c6 -2 18 -2 25 0 6 3 1 5 -13 5 -14 0 -19 -2 -12 -5z"/>
<path d="M24993 14036 c-64 -30 -138 -97 -166 -151 -30 -57 -30 -164 1 -222
45 -86 142 -118 212 -70 103 70 178 291 136 402 -10 25 -26 50 -36 55 -32 17
-93 11 -147 -14z m85 -92 c34 -24 31 -99 -7 -152 -16 -22 -35 -43 -42 -48 -7
-4 -1 8 13 27 37 47 44 83 24 114 -30 45 -99 27 -131 -35 -27 -52 -15 -109 25
-123 8 -3 3 -6 -12 -6 -34 -1 -48 23 -48 81 0 108 106 193 178 142z"/>
<path d="M25660 13632 c-77 -77 -76 -177 6 -336 88 -172 141 -242 229 -301 34
-23 46 -25 90 -20 76 10 81 12 99 53 9 20 37 71 61 112 25 41 48 92 51 113 5
30 9 35 20 26 17 -14 18 -5 2 13 -21 22 -102 121 -129 158 -101 137 -227 220
-332 220 -55 0 -62 -3 -97 -38z"/>
<path d="M26155 12993 c-26 -6 -44 -23 -24 -23 8 0 24 7 35 15 10 8 17 14 14
14 -3 -1 -14 -3 -25 -6z"/>
<path d="M25927 12959 c7 -7 15 -10 18 -7 3 3 -2 9 -12 12 -14 6 -15 5 -6 -5z"/>
<path d="M25980 12949 c-19 -5 -14 -7 23 -8 26 -1 47 1 47 3 0 8 -46 12 -70 5z"/>
<path d="M24570 12880 c-13 -9 -13 -10 0 -10 8 0 26 -3 40 -6 24 -5 24 -5 6
10 -23 19 -26 19 -46 6z"/>
<path d="M24295 12269 c43 -144 68 -207 137 -343 44 -87 86 -184 94 -214 8
-30 21 -66 28 -81 7 -14 21 -52 31 -83 10 -31 23 -56 29 -55 15 3 76 -122 77
-158 0 -16 4 -39 8 -50 7 -17 9 -14 14 15 31 171 25 490 -12 634 -34 130 -105
257 -133 239 -7 -3 -8 -1 -4 5 4 7 -3 17 -18 23 -14 7 -23 16 -20 20 2 4 -9
15 -27 24 -17 9 -29 12 -25 7 3 -5 -11 -1 -32 9 -20 10 -63 21 -96 25 -58 7
-58 6 -51 -17z"/>
<path d="M24145 12251 c-176 -83 -255 -292 -255 -671 0 -408 108 -620 339
-669 57 -12 167 -6 188 11 20 16 -1 55 -52 95 -45 35 -57 40 -112 42 -92 3
-113 17 -141 98 -31 91 -32 262 -2 473 5 36 11 85 14 110 3 25 8 55 12 66 3
12 1 24 -4 28 -5 3 -13 -5 -16 -19 -6 -23 -26 -36 -26 -16 0 19 71 281 100
368 32 97 35 113 23 113 -5 0 -35 -13 -68 -29z"/>
<path d="M29513 12280 c-211 -45 -313 -273 -313 -700 0 -286 46 -469 146 -580
71 -79 196 -113 323 -90 111 20 194 72 250 157 l31 46 0 483 0 482 -44 60
c-45 61 -103 103 -177 128 -51 18 -163 25 -216 14z"/>
<path d="M19980 12929 c0 -5 5 -7 10 -4 6 3 10 8 10 11 0 2 -4 4 -10 4 -5 0
-10 -5 -10 -11z"/>
<path d="M19922 12888 c-20 -20 -14 -46 14 -65 48 -31 89 28 42 61 -27 19 -40
20 -56 4z"/>
<path d="M20313 12231 c-37 -27 -66 -60 -88 -101 -4 -8 25 17 66 55 40 39 75
71 78 73 2 1 0 2 -6 2 -5 0 -28 -13 -50 -29z"/>
<path d="M20432 11170 c0 -14 2 -19 5 -12 2 6 2 18 0 25 -3 6 -5 1 -5 -13z"/>
<path d="M19029 9306 c-35 -20 -51 -59 -56 -141 -6 -79 9 -147 37 -175 48 -48
121 -32 151 34 33 72 20 234 -21 271 -25 22 -80 28 -111 11z"/>
<path d="M12761 12280 c-160 -34 -270 -173 -310 -392 l-8 -48 388 0 389 0 0
78 c0 173 -72 291 -207 342 -61 23 -189 33 -252 20z m239 -264 c0 -21 -21 -31
-31 -15 -5 8 -3 17 4 21 18 12 27 10 27 -6z"/>
<path d="M17433 9310 c-25 -10 -49 -43 -58 -82 l-7 -28 96 0 96 0 0 29 c0 43
-9 60 -41 76 -31 17 -54 18 -86 5z"/>
<path d="M20753 9310 c-25 -10 -48 -43 -57 -82 l-6 -28 95 0 95 0 0 31 c0 43
-15 65 -51 78 -37 13 -46 13 -76 1z"/>
<path d="M22079 9305 c-39 -22 -54 -68 -54 -170 0 -104 16 -145 65 -165 40
-17 87 -3 114 33 39 52 34 235 -7 283 -27 31 -82 40 -118 19z"/>
<path d="M16484 6791 c7 -11 46 -35 46 -28 0 3 -12 12 -26 22 -15 9 -23 12
-20 6z"/>
<path d="M14941 5483 c-7 -8 -19 -12 -27 -9 -15 6 -64 -30 -64 -47 0 -21 120
34 120 55 0 15 -16 15 -29 1z"/>
<path d="M14472 5367 c-20 -24 -44 -109 -34 -119 11 -11 32 -2 32 13 0 6 -4 7
-10 4 -6 -4 -6 3 0 21 6 15 8 29 5 32 -3 3 2 16 11 30 17 26 14 41 -4 19z"/>
<path d="M18860 6190 c25 -10 52 -19 60 -19 22 1 -62 37 -85 38 -11 0 0 -9 25
-19z"/>
<path d="M18950 1665 c0 -2 13 -11 28 -19 26 -13 28 -13 29 5 1 15 -5 19 -28
19 -16 0 -29 -2 -29 -5z"/>
</g>
</svg>
